<mxfile host="app.diagrams.net" agent="Mozilla/5.0 (Windows NT 10.0; Win64; x64) AppleWebKit/537.36 (KHTML, like Gecko) Chrome/125.0.0.0 Safari/537.36" version="26.0.5">
  <diagram name="第 1 页" id="hVXwJrMXX0ssOfp9rYNk">
    <mxGraphModel dx="2100" dy="1112" grid="1" gridSize="10" guides="1" tooltips="1" connect="1" arrows="1" fold="1" page="1" pageScale="1" pageWidth="827" pageHeight="1169" math="0" shadow="0">
      <root>
        <mxCell id="0" />
        <mxCell id="1" parent="0" />
        <mxCell id="F1iVXxPJUSdubmlJLsjF-1" value="开始" style="whiteSpace=wrap;strokeWidth=2;" vertex="1" parent="1">
          <mxGeometry x="597" y="20" width="92" height="54" as="geometry" />
        </mxCell>
        <mxCell id="F1iVXxPJUSdubmlJLsjF-2" value="市场环境" style="rhombus;strokeWidth=2;whiteSpace=wrap;" vertex="1" parent="1">
          <mxGeometry x="584" y="124" width="118" height="118" as="geometry" />
        </mxCell>
        <mxCell id="F1iVXxPJUSdubmlJLsjF-3" value="技术分析主导" style="whiteSpace=wrap;strokeWidth=2;" vertex="1" parent="1">
          <mxGeometry x="217" y="315" width="156" height="54" as="geometry" />
        </mxCell>
        <mxCell id="F1iVXxPJUSdubmlJLsjF-4" value="波段交易" style="whiteSpace=wrap;strokeWidth=2;" vertex="1" parent="1">
          <mxGeometry x="581" y="315" width="124" height="54" as="geometry" />
        </mxCell>
        <mxCell id="F1iVXxPJUSdubmlJLsjF-5" value="情绪交易主导" style="whiteSpace=wrap;strokeWidth=2;" vertex="1" parent="1">
          <mxGeometry x="1001" y="315" width="156" height="54" as="geometry" />
        </mxCell>
        <mxCell id="F1iVXxPJUSdubmlJLsjF-6" value="趋势强度" style="rhombus;strokeWidth=2;whiteSpace=wrap;" vertex="1" parent="1">
          <mxGeometry x="236" y="419" width="118" height="118" as="geometry" />
        </mxCell>
        <mxCell id="F1iVXxPJUSdubmlJLsjF-7" value="选趋势票" style="whiteSpace=wrap;strokeWidth=2;" vertex="1" parent="1">
          <mxGeometry x="146" y="610" width="124" height="54" as="geometry" />
        </mxCell>
        <mxCell id="F1iVXxPJUSdubmlJLsjF-8" value="空仓观望" style="whiteSpace=wrap;strokeWidth=2;" vertex="1" parent="1">
          <mxGeometry x="320" y="610" width="124" height="54" as="geometry" />
        </mxCell>
        <mxCell id="F1iVXxPJUSdubmlJLsjF-9" value="波动率" style="rhombus;strokeWidth=2;whiteSpace=wrap;" vertex="1" parent="1">
          <mxGeometry x="592" y="427" width="102" height="102" as="geometry" />
        </mxCell>
        <mxCell id="F1iVXxPJUSdubmlJLsjF-10" value="高抛低吸" style="whiteSpace=wrap;strokeWidth=2;" vertex="1" parent="1">
          <mxGeometry x="494" y="610" width="124" height="54" as="geometry" />
        </mxCell>
        <mxCell id="F1iVXxPJUSdubmlJLsjF-11" value="等待方向" style="whiteSpace=wrap;strokeWidth=2;" vertex="1" parent="1">
          <mxGeometry x="668" y="610" width="124" height="54" as="geometry" />
        </mxCell>
        <mxCell id="F1iVXxPJUSdubmlJLsjF-12" value="情绪周期" style="rhombus;strokeWidth=2;whiteSpace=wrap;" vertex="1" parent="1">
          <mxGeometry x="1020" y="419" width="118" height="118" as="geometry" />
        </mxCell>
        <mxCell id="F1iVXxPJUSdubmlJLsjF-13" value="首板/龙头" style="whiteSpace=wrap;strokeWidth=2;" vertex="1" parent="1">
          <mxGeometry x="842" y="610" width="132" height="54" as="geometry" />
        </mxCell>
        <mxCell id="F1iVXxPJUSdubmlJLsjF-112" style="edgeStyle=orthogonalEdgeStyle;rounded=0;orthogonalLoop=1;jettySize=auto;html=1;exitX=0.75;exitY=0;exitDx=0;exitDy=0;entryX=0;entryY=0.5;entryDx=0;entryDy=0;curved=1;" edge="1" parent="1" source="F1iVXxPJUSdubmlJLsjF-14" target="F1iVXxPJUSdubmlJLsjF-109">
          <mxGeometry relative="1" as="geometry">
            <Array as="points">
              <mxPoint x="1240" y="610" />
              <mxPoint x="1240" y="37" />
            </Array>
          </mxGeometry>
        </mxCell>
        <mxCell id="F1iVXxPJUSdubmlJLsjF-14" value="跟风股" style="whiteSpace=wrap;strokeWidth=2;" vertex="1" parent="1">
          <mxGeometry x="1025" y="610" width="108" height="54" as="geometry" />
        </mxCell>
        <mxCell id="F1iVXxPJUSdubmlJLsjF-15" value="空仓" style="whiteSpace=wrap;strokeWidth=2;" vertex="1" parent="1">
          <mxGeometry x="1183" y="610" width="92" height="54" as="geometry" />
        </mxCell>
        <mxCell id="F1iVXxPJUSdubmlJLsjF-107" style="edgeStyle=orthogonalEdgeStyle;rounded=0;orthogonalLoop=1;jettySize=auto;html=1;exitX=1;exitY=0.5;exitDx=0;exitDy=0;entryX=0;entryY=0.5;entryDx=0;entryDy=0;" edge="1" parent="1" source="F1iVXxPJUSdubmlJLsjF-16" target="F1iVXxPJUSdubmlJLsjF-19">
          <mxGeometry relative="1" as="geometry" />
        </mxCell>
        <mxCell id="F1iVXxPJUSdubmlJLsjF-16" value="技术选股" style="whiteSpace=wrap;strokeWidth=2;" vertex="1" parent="1">
          <mxGeometry x="146" y="714" width="124" height="54" as="geometry" />
        </mxCell>
        <mxCell id="F1iVXxPJUSdubmlJLsjF-17" value="买入" style="whiteSpace=wrap;strokeWidth=2;" vertex="1" parent="1">
          <mxGeometry x="91" y="858" width="92" height="54" as="geometry" />
        </mxCell>
        <mxCell id="F1iVXxPJUSdubmlJLsjF-18" value="剔除" style="whiteSpace=wrap;strokeWidth=2;" vertex="1" parent="1">
          <mxGeometry x="431" y="858" width="92" height="54" as="geometry" />
        </mxCell>
        <mxCell id="F1iVXxPJUSdubmlJLsjF-106" style="edgeStyle=orthogonalEdgeStyle;rounded=0;orthogonalLoop=1;jettySize=auto;html=1;exitX=1;exitY=0.5;exitDx=0;exitDy=0;entryX=0.5;entryY=0;entryDx=0;entryDy=0;curved=1;" edge="1" parent="1" source="F1iVXxPJUSdubmlJLsjF-19" target="F1iVXxPJUSdubmlJLsjF-64">
          <mxGeometry relative="1" as="geometry">
            <mxPoint x="1990" y="890" as="targetPoint" />
            <Array as="points">
              <mxPoint x="1590" y="741" />
              <mxPoint x="1590" y="710" />
              <mxPoint x="2209" y="710" />
            </Array>
          </mxGeometry>
        </mxCell>
        <mxCell id="F1iVXxPJUSdubmlJLsjF-19" value="情绪选股" style="whiteSpace=wrap;strokeWidth=2;" vertex="1" parent="1">
          <mxGeometry x="847" y="714" width="124" height="54" as="geometry" />
        </mxCell>
        <mxCell id="F1iVXxPJUSdubmlJLsjF-20" value="打板/低吸" style="whiteSpace=wrap;strokeWidth=2;" vertex="1" parent="1">
          <mxGeometry x="761" y="858" width="132" height="54" as="geometry" />
        </mxCell>
        <mxCell id="F1iVXxPJUSdubmlJLsjF-21" value="放弃" style="whiteSpace=wrap;strokeWidth=2;" vertex="1" parent="1">
          <mxGeometry x="944" y="858" width="92" height="54" as="geometry" />
        </mxCell>
        <mxCell id="F1iVXxPJUSdubmlJLsjF-22" value="持仓管理" style="whiteSpace=wrap;strokeWidth=2;" vertex="1" parent="1">
          <mxGeometry x="75" y="962" width="124" height="54" as="geometry" />
        </mxCell>
        <mxCell id="F1iVXxPJUSdubmlJLsjF-23" value="加仓" style="whiteSpace=wrap;strokeWidth=2;" vertex="1" parent="1">
          <mxGeometry x="20" y="1089" width="92" height="54" as="geometry" />
        </mxCell>
        <mxCell id="F1iVXxPJUSdubmlJLsjF-24" value="减仓" style="whiteSpace=wrap;strokeWidth=2;" vertex="1" parent="1">
          <mxGeometry x="162" y="1089" width="92" height="54" as="geometry" />
        </mxCell>
        <mxCell id="F1iVXxPJUSdubmlJLsjF-25" value="持仓管理" style="whiteSpace=wrap;strokeWidth=2;" vertex="1" parent="1">
          <mxGeometry x="765" y="962" width="124" height="54" as="geometry" />
        </mxCell>
        <mxCell id="F1iVXxPJUSdubmlJLsjF-26" value="持有" style="whiteSpace=wrap;strokeWidth=2;" vertex="1" parent="1">
          <mxGeometry x="710" y="1089" width="92" height="54" as="geometry" />
        </mxCell>
        <mxCell id="F1iVXxPJUSdubmlJLsjF-27" value="止损" style="whiteSpace=wrap;strokeWidth=2;" vertex="1" parent="1">
          <mxGeometry x="852" y="1089" width="92" height="54" as="geometry" />
        </mxCell>
        <mxCell id="F1iVXxPJUSdubmlJLsjF-28" value="离场" style="whiteSpace=wrap;strokeWidth=2;" vertex="1" parent="1">
          <mxGeometry x="629" y="1193" width="92" height="54" as="geometry" />
        </mxCell>
        <mxCell id="F1iVXxPJUSdubmlJLsjF-29" value="复盘优化" style="whiteSpace=wrap;strokeWidth=2;" vertex="1" parent="1">
          <mxGeometry x="613" y="1297" width="124" height="54" as="geometry" />
        </mxCell>
        <mxCell id="F1iVXxPJUSdubmlJLsjF-30" value="重复" style="whiteSpace=wrap;strokeWidth=2;" vertex="1" parent="1">
          <mxGeometry x="471" y="1424" width="92" height="54" as="geometry" />
        </mxCell>
        <mxCell id="F1iVXxPJUSdubmlJLsjF-31" value="回测调整" style="whiteSpace=wrap;strokeWidth=2;" vertex="1" parent="1">
          <mxGeometry x="613" y="1424" width="124" height="54" as="geometry" />
        </mxCell>
        <mxCell id="F1iVXxPJUSdubmlJLsjF-32" value="" style="curved=1;startArrow=none;endArrow=block;exitX=0.5;exitY=1;entryX=0.5;entryY=0;rounded=0;" edge="1" parent="1" source="F1iVXxPJUSdubmlJLsjF-1" target="F1iVXxPJUSdubmlJLsjF-2">
          <mxGeometry relative="1" as="geometry">
            <Array as="points" />
          </mxGeometry>
        </mxCell>
        <mxCell id="F1iVXxPJUSdubmlJLsjF-33" value="趋势市" style="curved=1;startArrow=none;endArrow=block;exitX=0;exitY=0.64;entryX=0.5;entryY=0;rounded=0;" edge="1" parent="1" source="F1iVXxPJUSdubmlJLsjF-2" target="F1iVXxPJUSdubmlJLsjF-3">
          <mxGeometry relative="1" as="geometry">
            <Array as="points">
              <mxPoint x="295" y="278" />
            </Array>
          </mxGeometry>
        </mxCell>
        <mxCell id="F1iVXxPJUSdubmlJLsjF-34" value="震荡市" style="curved=1;startArrow=none;endArrow=block;exitX=0.5;exitY=1;entryX=0.5;entryY=0;rounded=0;" edge="1" parent="1" source="F1iVXxPJUSdubmlJLsjF-2" target="F1iVXxPJUSdubmlJLsjF-4">
          <mxGeometry relative="1" as="geometry">
            <Array as="points" />
          </mxGeometry>
        </mxCell>
        <mxCell id="F1iVXxPJUSdubmlJLsjF-35" value="情绪市" style="curved=1;startArrow=none;endArrow=block;exitX=1;exitY=0.61;entryX=0.5;entryY=0;rounded=0;" edge="1" parent="1" source="F1iVXxPJUSdubmlJLsjF-2" target="F1iVXxPJUSdubmlJLsjF-5">
          <mxGeometry relative="1" as="geometry">
            <Array as="points">
              <mxPoint x="1079" y="278" />
            </Array>
          </mxGeometry>
        </mxCell>
        <mxCell id="F1iVXxPJUSdubmlJLsjF-36" value="" style="curved=1;startArrow=none;endArrow=block;exitX=0.5;exitY=1;entryX=0.5;entryY=0;rounded=0;" edge="1" parent="1" source="F1iVXxPJUSdubmlJLsjF-3" target="F1iVXxPJUSdubmlJLsjF-6">
          <mxGeometry relative="1" as="geometry">
            <Array as="points" />
          </mxGeometry>
        </mxCell>
        <mxCell id="F1iVXxPJUSdubmlJLsjF-37" value="均线多头 + MACD金叉" style="curved=1;startArrow=none;endArrow=block;exitX=0.05;exitY=1;entryX=0.5;entryY=0;rounded=0;" edge="1" parent="1" source="F1iVXxPJUSdubmlJLsjF-6" target="F1iVXxPJUSdubmlJLsjF-7">
          <mxGeometry relative="1" as="geometry">
            <Array as="points">
              <mxPoint x="208" y="573" />
            </Array>
          </mxGeometry>
        </mxCell>
        <mxCell id="F1iVXxPJUSdubmlJLsjF-38" value="趋势破位" style="curved=1;startArrow=none;endArrow=block;exitX=0.96;exitY=1;entryX=0.5;entryY=0;rounded=0;" edge="1" parent="1" source="F1iVXxPJUSdubmlJLsjF-6" target="F1iVXxPJUSdubmlJLsjF-8">
          <mxGeometry relative="1" as="geometry">
            <Array as="points">
              <mxPoint x="382" y="573" />
            </Array>
          </mxGeometry>
        </mxCell>
        <mxCell id="F1iVXxPJUSdubmlJLsjF-39" value="" style="curved=1;startArrow=none;endArrow=block;exitX=0.5;exitY=1;entryX=0.5;entryY=0;rounded=0;" edge="1" parent="1" source="F1iVXxPJUSdubmlJLsjF-4" target="F1iVXxPJUSdubmlJLsjF-9">
          <mxGeometry relative="1" as="geometry">
            <Array as="points" />
          </mxGeometry>
        </mxCell>
        <mxCell id="F1iVXxPJUSdubmlJLsjF-40" value="ATR＞3%" style="curved=1;startArrow=none;endArrow=block;exitX=0.05;exitY=1;entryX=0.5;entryY=0;rounded=0;" edge="1" parent="1" source="F1iVXxPJUSdubmlJLsjF-9" target="F1iVXxPJUSdubmlJLsjF-10">
          <mxGeometry relative="1" as="geometry">
            <Array as="points">
              <mxPoint x="556" y="573" />
            </Array>
          </mxGeometry>
        </mxCell>
        <mxCell id="F1iVXxPJUSdubmlJLsjF-41" value="ATR＜1%" style="curved=1;startArrow=none;endArrow=block;exitX=0.96;exitY=1;entryX=0.5;entryY=0;rounded=0;" edge="1" parent="1" source="F1iVXxPJUSdubmlJLsjF-9" target="F1iVXxPJUSdubmlJLsjF-11">
          <mxGeometry relative="1" as="geometry">
            <Array as="points">
              <mxPoint x="730" y="573" />
            </Array>
          </mxGeometry>
        </mxCell>
        <mxCell id="F1iVXxPJUSdubmlJLsjF-42" value="" style="curved=1;startArrow=none;endArrow=block;exitX=0.5;exitY=1;entryX=0.5;entryY=0;rounded=0;" edge="1" parent="1" source="F1iVXxPJUSdubmlJLsjF-5" target="F1iVXxPJUSdubmlJLsjF-12">
          <mxGeometry relative="1" as="geometry">
            <Array as="points" />
          </mxGeometry>
        </mxCell>
        <mxCell id="F1iVXxPJUSdubmlJLsjF-43" value="启动期" style="curved=1;startArrow=none;endArrow=block;exitX=0;exitY=0.78;entryX=0.5;entryY=0;rounded=0;" edge="1" parent="1" source="F1iVXxPJUSdubmlJLsjF-12" target="F1iVXxPJUSdubmlJLsjF-13">
          <mxGeometry relative="1" as="geometry">
            <Array as="points">
              <mxPoint x="909" y="573" />
            </Array>
          </mxGeometry>
        </mxCell>
        <mxCell id="F1iVXxPJUSdubmlJLsjF-44" value="高潮期" style="curved=1;startArrow=none;endArrow=block;exitX=0.5;exitY=1;entryX=0.5;entryY=0;rounded=0;" edge="1" parent="1" source="F1iVXxPJUSdubmlJLsjF-12" target="F1iVXxPJUSdubmlJLsjF-14">
          <mxGeometry relative="1" as="geometry">
            <Array as="points" />
          </mxGeometry>
        </mxCell>
        <mxCell id="F1iVXxPJUSdubmlJLsjF-45" value="退潮期" style="curved=1;startArrow=none;endArrow=block;exitX=1;exitY=0.82;entryX=0.5;entryY=0;rounded=0;" edge="1" parent="1" source="F1iVXxPJUSdubmlJLsjF-12" target="F1iVXxPJUSdubmlJLsjF-15">
          <mxGeometry relative="1" as="geometry">
            <Array as="points">
              <mxPoint x="1229" y="573" />
            </Array>
          </mxGeometry>
        </mxCell>
        <mxCell id="F1iVXxPJUSdubmlJLsjF-46" value="" style="curved=1;startArrow=none;endArrow=block;exitX=0.5;exitY=1;entryX=0.5;entryY=0;rounded=0;" edge="1" parent="1" source="F1iVXxPJUSdubmlJLsjF-7" target="F1iVXxPJUSdubmlJLsjF-16">
          <mxGeometry relative="1" as="geometry">
            <Array as="points" />
          </mxGeometry>
        </mxCell>
        <mxCell id="F1iVXxPJUSdubmlJLsjF-47" value="突破放量 + RSI＜70" style="curved=1;startArrow=none;endArrow=block;exitX=0.29;exitY=1;entryX=0.5;entryY=0.01;rounded=0;" edge="1" parent="1" source="F1iVXxPJUSdubmlJLsjF-16" target="F1iVXxPJUSdubmlJLsjF-17">
          <mxGeometry relative="1" as="geometry">
            <Array as="points">
              <mxPoint x="137" y="813" />
            </Array>
          </mxGeometry>
        </mxCell>
        <mxCell id="F1iVXxPJUSdubmlJLsjF-48" value="缩量破位" style="curved=1;startArrow=none;endArrow=block;exitX=1;exitY=0.81;entryX=0.5;entryY=0.01;rounded=0;" edge="1" parent="1" source="F1iVXxPJUSdubmlJLsjF-16" target="F1iVXxPJUSdubmlJLsjF-18">
          <mxGeometry relative="1" as="geometry">
            <Array as="points">
              <mxPoint x="477" y="813" />
            </Array>
          </mxGeometry>
        </mxCell>
        <mxCell id="F1iVXxPJUSdubmlJLsjF-49" value="" style="curved=1;startArrow=none;endArrow=block;exitX=0.5;exitY=1;entryX=0.5;entryY=0;rounded=0;" edge="1" parent="1" source="F1iVXxPJUSdubmlJLsjF-13" target="F1iVXxPJUSdubmlJLsjF-19">
          <mxGeometry relative="1" as="geometry">
            <Array as="points" />
          </mxGeometry>
        </mxCell>
        <mxCell id="F1iVXxPJUSdubmlJLsjF-50" value="板块涨停≥3 + 龙头封单＞1亿" style="curved=1;startArrow=none;endArrow=block;exitX=0.25;exitY=1;entryX=0.5;entryY=0.01;rounded=0;" edge="1" parent="1" source="F1iVXxPJUSdubmlJLsjF-19" target="F1iVXxPJUSdubmlJLsjF-20">
          <mxGeometry relative="1" as="geometry">
            <Array as="points">
              <mxPoint x="827" y="813" />
            </Array>
          </mxGeometry>
        </mxCell>
        <mxCell id="F1iVXxPJUSdubmlJLsjF-51" value="封单骤降＞50%" style="curved=1;startArrow=none;endArrow=block;exitX=0.74;exitY=1;entryX=0.5;entryY=0.01;rounded=0;" edge="1" parent="1" source="F1iVXxPJUSdubmlJLsjF-19" target="F1iVXxPJUSdubmlJLsjF-21">
          <mxGeometry relative="1" as="geometry">
            <Array as="points">
              <mxPoint x="990" y="813" />
            </Array>
          </mxGeometry>
        </mxCell>
        <mxCell id="F1iVXxPJUSdubmlJLsjF-52" value="" style="curved=1;startArrow=none;endArrow=block;exitX=0.5;exitY=1.01;entryX=0.5;entryY=0.01;rounded=0;" edge="1" parent="1" source="F1iVXxPJUSdubmlJLsjF-17" target="F1iVXxPJUSdubmlJLsjF-22">
          <mxGeometry relative="1" as="geometry">
            <Array as="points" />
          </mxGeometry>
        </mxCell>
        <mxCell id="F1iVXxPJUSdubmlJLsjF-53" value="回踩均线不破" style="curved=1;startArrow=none;endArrow=block;exitX=0.26;exitY=1.01;entryX=0.5;entryY=0;rounded=0;" edge="1" parent="1" source="F1iVXxPJUSdubmlJLsjF-22" target="F1iVXxPJUSdubmlJLsjF-23">
          <mxGeometry relative="1" as="geometry">
            <Array as="points">
              <mxPoint x="66" y="1053" />
            </Array>
          </mxGeometry>
        </mxCell>
        <mxCell id="F1iVXxPJUSdubmlJLsjF-54" value="MACD死叉" style="curved=1;startArrow=none;endArrow=block;exitX=0.75;exitY=1.01;entryX=0.5;entryY=0;rounded=0;" edge="1" parent="1" source="F1iVXxPJUSdubmlJLsjF-22" target="F1iVXxPJUSdubmlJLsjF-24">
          <mxGeometry relative="1" as="geometry">
            <Array as="points">
              <mxPoint x="208" y="1053" />
            </Array>
          </mxGeometry>
        </mxCell>
        <mxCell id="F1iVXxPJUSdubmlJLsjF-55" value="" style="curved=1;startArrow=none;endArrow=block;exitX=0.5;exitY=1.01;entryX=0.5;entryY=0.01;rounded=0;" edge="1" parent="1" source="F1iVXxPJUSdubmlJLsjF-20" target="F1iVXxPJUSdubmlJLsjF-25">
          <mxGeometry relative="1" as="geometry">
            <Array as="points" />
          </mxGeometry>
        </mxCell>
        <mxCell id="F1iVXxPJUSdubmlJLsjF-56" value="板块梯队完整" style="curved=1;startArrow=none;endArrow=block;exitX=0.26;exitY=1.01;entryX=0.51;entryY=0;rounded=0;" edge="1" parent="1" source="F1iVXxPJUSdubmlJLsjF-25" target="F1iVXxPJUSdubmlJLsjF-26">
          <mxGeometry relative="1" as="geometry">
            <Array as="points">
              <mxPoint x="756" y="1053" />
            </Array>
          </mxGeometry>
        </mxCell>
        <mxCell id="F1iVXxPJUSdubmlJLsjF-57" value="龙头炸板" style="curved=1;startArrow=none;endArrow=block;exitX=0.75;exitY=1.01;entryX=0.51;entryY=0;rounded=0;" edge="1" parent="1" source="F1iVXxPJUSdubmlJLsjF-25" target="F1iVXxPJUSdubmlJLsjF-27">
          <mxGeometry relative="1" as="geometry">
            <Array as="points">
              <mxPoint x="898" y="1053" />
            </Array>
          </mxGeometry>
        </mxCell>
        <mxCell id="F1iVXxPJUSdubmlJLsjF-58" value="" style="curved=1;startArrow=none;endArrow=block;exitX=0.5;exitY=1.01;entryX=0;entryY=0.41;rounded=0;" edge="1" parent="1" source="F1iVXxPJUSdubmlJLsjF-24" target="F1iVXxPJUSdubmlJLsjF-28">
          <mxGeometry relative="1" as="geometry">
            <Array as="points">
              <mxPoint x="208" y="1168" />
            </Array>
          </mxGeometry>
        </mxCell>
        <mxCell id="F1iVXxPJUSdubmlJLsjF-59" value="" style="curved=1;startArrow=none;endArrow=block;exitX=0.51;exitY=1.01;entryX=0.96;entryY=0.01;rounded=0;" edge="1" parent="1" source="F1iVXxPJUSdubmlJLsjF-26" target="F1iVXxPJUSdubmlJLsjF-28">
          <mxGeometry relative="1" as="geometry">
            <Array as="points">
              <mxPoint x="756" y="1168" />
            </Array>
          </mxGeometry>
        </mxCell>
        <mxCell id="F1iVXxPJUSdubmlJLsjF-60" value="" style="curved=1;startArrow=none;endArrow=block;exitX=0.51;exitY=1.01;entryX=1;entryY=0.31;rounded=0;" edge="1" parent="1" source="F1iVXxPJUSdubmlJLsjF-27" target="F1iVXxPJUSdubmlJLsjF-28">
          <mxGeometry relative="1" as="geometry">
            <Array as="points">
              <mxPoint x="898" y="1168" />
            </Array>
          </mxGeometry>
        </mxCell>
        <mxCell id="F1iVXxPJUSdubmlJLsjF-61" value="" style="curved=1;startArrow=none;endArrow=block;exitX=0.5;exitY=1.01;entryX=0.5;entryY=0.01;rounded=0;" edge="1" parent="1" source="F1iVXxPJUSdubmlJLsjF-28" target="F1iVXxPJUSdubmlJLsjF-29">
          <mxGeometry relative="1" as="geometry">
            <Array as="points" />
          </mxGeometry>
        </mxCell>
        <mxCell id="F1iVXxPJUSdubmlJLsjF-62" value="策略有效" style="curved=1;startArrow=none;endArrow=block;exitX=0;exitY=0.97;entryX=0.5;entryY=0;rounded=0;" edge="1" parent="1" source="F1iVXxPJUSdubmlJLsjF-29" target="F1iVXxPJUSdubmlJLsjF-30">
          <mxGeometry relative="1" as="geometry">
            <Array as="points">
              <mxPoint x="517" y="1388" />
            </Array>
          </mxGeometry>
        </mxCell>
        <mxCell id="F1iVXxPJUSdubmlJLsjF-63" value="策略失效" style="curved=1;startArrow=none;endArrow=block;exitX=0.5;exitY=1.01;entryX=0.5;entryY=0;rounded=0;" edge="1" parent="1" source="F1iVXxPJUSdubmlJLsjF-29" target="F1iVXxPJUSdubmlJLsjF-31">
          <mxGeometry relative="1" as="geometry">
            <Array as="points" />
          </mxGeometry>
        </mxCell>
        <mxCell id="F1iVXxPJUSdubmlJLsjF-64" value="开始" style="whiteSpace=wrap;strokeWidth=2;" vertex="1" parent="1">
          <mxGeometry x="2163" y="760" width="92" height="54" as="geometry" />
        </mxCell>
        <mxCell id="F1iVXxPJUSdubmlJLsjF-65" value="趋势结构" style="rhombus;strokeWidth=2;whiteSpace=wrap;" vertex="1" parent="1">
          <mxGeometry x="2150" y="864" width="118" height="118" as="geometry" />
        </mxCell>
        <mxCell id="F1iVXxPJUSdubmlJLsjF-66" value="真强股" style="whiteSpace=wrap;strokeWidth=2;" vertex="1" parent="1">
          <mxGeometry x="1779" y="1055" width="108" height="54" as="geometry" />
        </mxCell>
        <mxCell id="F1iVXxPJUSdubmlJLsjF-67" value="假强股" style="whiteSpace=wrap;strokeWidth=2;" vertex="1" parent="1">
          <mxGeometry x="2052" y="1055" width="108" height="54" as="geometry" />
        </mxCell>
        <mxCell id="F1iVXxPJUSdubmlJLsjF-68" value="真弱股" style="whiteSpace=wrap;strokeWidth=2;" vertex="1" parent="1">
          <mxGeometry x="2258" y="1055" width="108" height="54" as="geometry" />
        </mxCell>
        <mxCell id="F1iVXxPJUSdubmlJLsjF-69" value="假弱股" style="whiteSpace=wrap;strokeWidth=2;" vertex="1" parent="1">
          <mxGeometry x="2489" y="1055" width="108" height="54" as="geometry" />
        </mxCell>
        <mxCell id="F1iVXxPJUSdubmlJLsjF-70" value="量能验证" style="rhombus;strokeWidth=2;whiteSpace=wrap;" vertex="1" parent="1">
          <mxGeometry x="1774" y="1167" width="118" height="118" as="geometry" />
        </mxCell>
        <mxCell id="F1iVXxPJUSdubmlJLsjF-71" value="确认强势" style="whiteSpace=wrap;strokeWidth=2;" vertex="1" parent="1">
          <mxGeometry x="1771" y="1383" width="124" height="54" as="geometry" />
        </mxCell>
        <mxCell id="F1iVXxPJUSdubmlJLsjF-72" value="资金动向" style="whiteSpace=wrap;strokeWidth=2;" vertex="1" parent="1">
          <mxGeometry x="1771" y="1487" width="124" height="54" as="geometry" />
        </mxCell>
        <mxCell id="F1iVXxPJUSdubmlJLsjF-73" value="龙虎榜分析" style="rhombus;strokeWidth=2;whiteSpace=wrap;" vertex="1" parent="1">
          <mxGeometry x="2039" y="1159" width="134" height="134" as="geometry" />
        </mxCell>
        <mxCell id="F1iVXxPJUSdubmlJLsjF-74" value="假强信号" style="whiteSpace=wrap;strokeWidth=2;" vertex="1" parent="1">
          <mxGeometry x="2044" y="1383" width="124" height="54" as="geometry" />
        </mxCell>
        <mxCell id="F1iVXxPJUSdubmlJLsjF-75" value="立即离场" style="whiteSpace=wrap;strokeWidth=2;" vertex="1" parent="1">
          <mxGeometry x="2044" y="1487" width="124" height="54" as="geometry" />
        </mxCell>
        <mxCell id="F1iVXxPJUSdubmlJLsjF-76" value="基本面核查" style="rhombus;strokeWidth=2;whiteSpace=wrap;" vertex="1" parent="1">
          <mxGeometry x="2245" y="1159" width="134" height="134" as="geometry" />
        </mxCell>
        <mxCell id="F1iVXxPJUSdubmlJLsjF-77" value="真弱确认" style="whiteSpace=wrap;strokeWidth=2;" vertex="1" parent="1">
          <mxGeometry x="2250" y="1383" width="124" height="54" as="geometry" />
        </mxCell>
        <mxCell id="F1iVXxPJUSdubmlJLsjF-78" value="反弹至20日线离场" style="whiteSpace=wrap;strokeWidth=2;" vertex="1" parent="1">
          <mxGeometry x="2218" y="1487" width="189" height="54" as="geometry" />
        </mxCell>
        <mxCell id="F1iVXxPJUSdubmlJLsjF-79" value="底部信号" style="rhombus;strokeWidth=2;whiteSpace=wrap;" vertex="1" parent="1">
          <mxGeometry x="2484" y="1167" width="118" height="118" as="geometry" />
        </mxCell>
        <mxCell id="F1iVXxPJUSdubmlJLsjF-80" value="假弱机会" style="whiteSpace=wrap;strokeWidth=2;" vertex="1" parent="1">
          <mxGeometry x="2481" y="1383" width="124" height="54" as="geometry" />
        </mxCell>
        <mxCell id="F1iVXxPJUSdubmlJLsjF-81" value="定投或突破加仓" style="whiteSpace=wrap;strokeWidth=2;" vertex="1" parent="1">
          <mxGeometry x="2457" y="1487" width="172" height="54" as="geometry" />
        </mxCell>
        <mxCell id="F1iVXxPJUSdubmlJLsjF-82" value="持仓待涨" style="whiteSpace=wrap;strokeWidth=2;" vertex="1" parent="1">
          <mxGeometry x="1771" y="1614" width="124" height="54" as="geometry" />
        </mxCell>
        <mxCell id="F1iVXxPJUSdubmlJLsjF-83" value="回踩均线加仓" style="whiteSpace=wrap;strokeWidth=2;" vertex="1" parent="1">
          <mxGeometry x="1755" y="1718" width="156" height="54" as="geometry" />
        </mxCell>
        <mxCell id="F1iVXxPJUSdubmlJLsjF-84" value="" style="curved=1;startArrow=none;endArrow=block;exitX=0.5;exitY=1;entryX=0.5;entryY=0;rounded=0;" edge="1" parent="1" source="F1iVXxPJUSdubmlJLsjF-64" target="F1iVXxPJUSdubmlJLsjF-65">
          <mxGeometry relative="1" as="geometry">
            <Array as="points" />
          </mxGeometry>
        </mxCell>
        <mxCell id="F1iVXxPJUSdubmlJLsjF-85" value="均线多头排列 + 独立于指数" style="curved=1;startArrow=none;endArrow=block;exitX=0;exitY=0.63;entryX=0.5;entryY=0;rounded=0;" edge="1" parent="1" source="F1iVXxPJUSdubmlJLsjF-65" target="F1iVXxPJUSdubmlJLsjF-66">
          <mxGeometry relative="1" as="geometry">
            <Array as="points">
              <mxPoint x="1833" y="1018" />
            </Array>
          </mxGeometry>
        </mxCell>
        <mxCell id="F1iVXxPJUSdubmlJLsjF-86" value="新高无量/利好兑现" style="curved=1;startArrow=none;endArrow=block;exitX=0;exitY=0.96;entryX=0.5;entryY=0;rounded=0;" edge="1" parent="1" source="F1iVXxPJUSdubmlJLsjF-65" target="F1iVXxPJUSdubmlJLsjF-67">
          <mxGeometry relative="1" as="geometry">
            <Array as="points">
              <mxPoint x="2106" y="1018" />
            </Array>
          </mxGeometry>
        </mxCell>
        <mxCell id="F1iVXxPJUSdubmlJLsjF-87" value="均线空头 + 流动性枯竭" style="curved=1;startArrow=none;endArrow=block;exitX=1;exitY=0.96;entryX=0.5;entryY=0;rounded=0;" edge="1" parent="1" source="F1iVXxPJUSdubmlJLsjF-65" target="F1iVXxPJUSdubmlJLsjF-68">
          <mxGeometry relative="1" as="geometry">
            <Array as="points">
              <mxPoint x="2312" y="1018" />
            </Array>
          </mxGeometry>
        </mxCell>
        <mxCell id="F1iVXxPJUSdubmlJLsjF-88" value="底背离 + 错杀逻辑" style="curved=1;startArrow=none;endArrow=block;exitX=1;exitY=0.64;entryX=0.5;entryY=0;rounded=0;" edge="1" parent="1" source="F1iVXxPJUSdubmlJLsjF-65" target="F1iVXxPJUSdubmlJLsjF-69">
          <mxGeometry relative="1" as="geometry">
            <Array as="points">
              <mxPoint x="2543" y="1018" />
            </Array>
          </mxGeometry>
        </mxCell>
        <mxCell id="F1iVXxPJUSdubmlJLsjF-89" value="" style="curved=1;startArrow=none;endArrow=block;exitX=0.5;exitY=1;entryX=0.5;entryY=0;rounded=0;" edge="1" parent="1" source="F1iVXxPJUSdubmlJLsjF-66" target="F1iVXxPJUSdubmlJLsjF-70">
          <mxGeometry relative="1" as="geometry">
            <Array as="points" />
          </mxGeometry>
        </mxCell>
        <mxCell id="F1iVXxPJUSdubmlJLsjF-90" value="突破放量 &gt;5日均量2倍" style="curved=1;startArrow=none;endArrow=block;exitX=0.09;exitY=1;entryX=0.22;entryY=0.01;rounded=0;" edge="1" parent="1" source="F1iVXxPJUSdubmlJLsjF-70" target="F1iVXxPJUSdubmlJLsjF-71">
          <mxGeometry relative="1" as="geometry">
            <Array as="points">
              <mxPoint x="1740" y="1338" />
            </Array>
          </mxGeometry>
        </mxCell>
        <mxCell id="F1iVXxPJUSdubmlJLsjF-91" value="回调缩量至均量50%" style="curved=1;startArrow=none;endArrow=block;exitX=0.91;exitY=1;entryX=0.78;entryY=0.01;rounded=0;" edge="1" parent="1" source="F1iVXxPJUSdubmlJLsjF-70" target="F1iVXxPJUSdubmlJLsjF-71">
          <mxGeometry relative="1" as="geometry">
            <Array as="points">
              <mxPoint x="1925" y="1338" />
            </Array>
          </mxGeometry>
        </mxCell>
        <mxCell id="F1iVXxPJUSdubmlJLsjF-92" value="" style="curved=1;startArrow=none;endArrow=block;exitX=0.5;exitY=1.01;entryX=0.5;entryY=0.01;rounded=0;" edge="1" parent="1" source="F1iVXxPJUSdubmlJLsjF-71" target="F1iVXxPJUSdubmlJLsjF-72">
          <mxGeometry relative="1" as="geometry">
            <Array as="points" />
          </mxGeometry>
        </mxCell>
        <mxCell id="F1iVXxPJUSdubmlJLsjF-93" value="" style="curved=1;startArrow=none;endArrow=block;exitX=0.5;exitY=1;entryX=0.5;entryY=0;rounded=0;" edge="1" parent="1" source="F1iVXxPJUSdubmlJLsjF-67" target="F1iVXxPJUSdubmlJLsjF-73">
          <mxGeometry relative="1" as="geometry">
            <Array as="points" />
          </mxGeometry>
        </mxCell>
        <mxCell id="F1iVXxPJUSdubmlJLsjF-94" value="游资对倒/机构净卖出" style="curved=1;startArrow=none;endArrow=block;exitX=0.5;exitY=1;entryX=0.5;entryY=0.01;rounded=0;" edge="1" parent="1" source="F1iVXxPJUSdubmlJLsjF-73" target="F1iVXxPJUSdubmlJLsjF-74">
          <mxGeometry relative="1" as="geometry">
            <Array as="points" />
          </mxGeometry>
        </mxCell>
        <mxCell id="F1iVXxPJUSdubmlJLsjF-95" value="" style="curved=1;startArrow=none;endArrow=block;exitX=0.5;exitY=1.01;entryX=0.5;entryY=0.01;rounded=0;" edge="1" parent="1" source="F1iVXxPJUSdubmlJLsjF-74" target="F1iVXxPJUSdubmlJLsjF-75">
          <mxGeometry relative="1" as="geometry">
            <Array as="points" />
          </mxGeometry>
        </mxCell>
        <mxCell id="F1iVXxPJUSdubmlJLsjF-96" value="" style="curved=1;startArrow=none;endArrow=block;exitX=0.5;exitY=1;entryX=0.5;entryY=0;rounded=0;" edge="1" parent="1" source="F1iVXxPJUSdubmlJLsjF-68" target="F1iVXxPJUSdubmlJLsjF-76">
          <mxGeometry relative="1" as="geometry">
            <Array as="points" />
          </mxGeometry>
        </mxCell>
        <mxCell id="F1iVXxPJUSdubmlJLsjF-97" value="业绩连续下滑 + 估值崩塌" style="curved=1;startArrow=none;endArrow=block;exitX=0.5;exitY=1;entryX=0.5;entryY=0.01;rounded=0;" edge="1" parent="1" source="F1iVXxPJUSdubmlJLsjF-76" target="F1iVXxPJUSdubmlJLsjF-77">
          <mxGeometry relative="1" as="geometry">
            <Array as="points" />
          </mxGeometry>
        </mxCell>
        <mxCell id="F1iVXxPJUSdubmlJLsjF-98" value="" style="curved=1;startArrow=none;endArrow=block;exitX=0.5;exitY=1.01;entryX=0.5;entryY=0.01;rounded=0;" edge="1" parent="1" source="F1iVXxPJUSdubmlJLsjF-77" target="F1iVXxPJUSdubmlJLsjF-78">
          <mxGeometry relative="1" as="geometry">
            <Array as="points" />
          </mxGeometry>
        </mxCell>
        <mxCell id="F1iVXxPJUSdubmlJLsjF-99" value="" style="curved=1;startArrow=none;endArrow=block;exitX=0.5;exitY=1;entryX=0.5;entryY=0;rounded=0;" edge="1" parent="1" source="F1iVXxPJUSdubmlJLsjF-69" target="F1iVXxPJUSdubmlJLsjF-79">
          <mxGeometry relative="1" as="geometry">
            <Array as="points" />
          </mxGeometry>
        </mxCell>
        <mxCell id="F1iVXxPJUSdubmlJLsjF-100" value="月线MACD底背离 + 低位放量" style="curved=1;startArrow=none;endArrow=block;exitX=0.5;exitY=1;entryX=0.5;entryY=0.01;rounded=0;" edge="1" parent="1" source="F1iVXxPJUSdubmlJLsjF-79" target="F1iVXxPJUSdubmlJLsjF-80">
          <mxGeometry relative="1" as="geometry">
            <Array as="points" />
          </mxGeometry>
        </mxCell>
        <mxCell id="F1iVXxPJUSdubmlJLsjF-101" value="" style="curved=1;startArrow=none;endArrow=block;exitX=0.5;exitY=1.01;entryX=0.5;entryY=0.01;rounded=0;" edge="1" parent="1" source="F1iVXxPJUSdubmlJLsjF-80" target="F1iVXxPJUSdubmlJLsjF-81">
          <mxGeometry relative="1" as="geometry">
            <Array as="points" />
          </mxGeometry>
        </mxCell>
        <mxCell id="F1iVXxPJUSdubmlJLsjF-102" value="机构/外资持续流入" style="curved=1;startArrow=none;endArrow=block;exitX=0.19;exitY=1.01;entryX=0.19;entryY=0.01;rounded=0;" edge="1" parent="1" source="F1iVXxPJUSdubmlJLsjF-72" target="F1iVXxPJUSdubmlJLsjF-82">
          <mxGeometry relative="1" as="geometry">
            <Array as="points">
              <mxPoint x="1744" y="1578" />
            </Array>
          </mxGeometry>
        </mxCell>
        <mxCell id="F1iVXxPJUSdubmlJLsjF-103" value="主力筹码集中度&gt;70%" style="curved=1;startArrow=none;endArrow=block;exitX=0.81;exitY=1.01;entryX=0.81;entryY=0.01;rounded=0;" edge="1" parent="1" source="F1iVXxPJUSdubmlJLsjF-72" target="F1iVXxPJUSdubmlJLsjF-82">
          <mxGeometry relative="1" as="geometry">
            <Array as="points">
              <mxPoint x="1922" y="1578" />
            </Array>
          </mxGeometry>
        </mxCell>
        <mxCell id="F1iVXxPJUSdubmlJLsjF-104" value="" style="curved=1;startArrow=none;endArrow=block;exitX=0.5;exitY=1.01;entryX=0.5;entryY=0.01;rounded=0;" edge="1" parent="1" source="F1iVXxPJUSdubmlJLsjF-82" target="F1iVXxPJUSdubmlJLsjF-83">
          <mxGeometry relative="1" as="geometry">
            <Array as="points" />
          </mxGeometry>
        </mxCell>
        <mxCell id="F1iVXxPJUSdubmlJLsjF-105" value="" style="curved=1;endArrow=classic;html=1;rounded=0;" edge="1" parent="1">
          <mxGeometry width="50" height="50" relative="1" as="geometry">
            <mxPoint x="940" y="970" as="sourcePoint" />
            <mxPoint x="990" y="920" as="targetPoint" />
            <Array as="points">
              <mxPoint x="990" y="970" />
              <mxPoint x="940" y="920" />
            </Array>
          </mxGeometry>
        </mxCell>
        <mxCell id="F1iVXxPJUSdubmlJLsjF-111" style="edgeStyle=orthogonalEdgeStyle;rounded=0;orthogonalLoop=1;jettySize=auto;html=1;exitX=0.5;exitY=1;exitDx=0;exitDy=0;entryX=0.5;entryY=0;entryDx=0;entryDy=0;" edge="1" parent="1" source="F1iVXxPJUSdubmlJLsjF-109" target="F1iVXxPJUSdubmlJLsjF-110">
          <mxGeometry relative="1" as="geometry" />
        </mxCell>
        <mxCell id="F1iVXxPJUSdubmlJLsjF-109" value="开始" style="whiteSpace=wrap;strokeWidth=2;" vertex="1" parent="1">
          <mxGeometry x="1710" y="10" width="92" height="54" as="geometry" />
        </mxCell>
        <mxCell id="F1iVXxPJUSdubmlJLsjF-110" value="策略" style="whiteSpace=wrap;strokeWidth=2;" vertex="1" parent="1">
          <mxGeometry x="1710" y="130" width="92" height="54" as="geometry" />
        </mxCell>
      </root>
    </mxGraphModel>
  </diagram>
</mxfile>
